# xmcd
#
# Track frame offsets:
#	150
#	46235
#	67954
#	88842
#
# Disc length: 1478 seconds
#
# Revision: 1
# Processed by: cddbd v1.5.2PL0 Copyright (c) Steve Scherf et al.
# Submitted via: audiograbber 1.83.01
#
DISCID=2c05c404
DTITLE=Grateful Dead - 79-11-29 Cleveland Public Hall, Cleveland OH
DYEAR=1900
DGENRE=
TTITLE0=Black Peter
TTITLE1=Around and Around
TTITLE2=Johnny B Goode
TTITLE3=US Blues
EXTD=
EXTT0=
EXTT1=
EXTT2=
EXTT3=
PLAYORDER=
